<svg xmlns="http://www.w3.org/2000/svg" width="215" height="31" viewBox="0 0 215 31" fill="none">
                <path d="M214.658 13.6045C214.666 14.5593 214.674 15.5149 214.682 16.4697C214.741 23.7752 214.741 23.7766 214.746 26.9355C214.747 27.1795 214.747 27.4241 214.748 27.668C214.749 27.9959 214.75 28.3244 214.75 28.6523C214.751 28.7944 214.75 28.7958 214.751 28.9404C214.75 29.3306 214.734 29.6327 214.609 30.0059C214.197 30.0095 213.784 30.0117 213.372 30.0137C213.196 30.0153 213.196 30.016 213.017 30.0176C212.904 30.018 212.792 30.0181 212.676 30.0186C212.572 30.0192 212.469 30.0198 212.362 30.0205C212.088 30.0062 212.087 30.006 211.709 29.8799C211.687 24.6975 211.726 19.5151 211.772 14.333C211.773 14.2484 211.774 14.1633 211.774 14.0762C211.794 11.8638 211.814 9.65088 211.835 7.43848H214.609C214.626 9.49366 214.642 11.5493 214.658 13.6045ZM48.7275 0.0761719C49.4559 0.101274 50.3853 0.188364 50.7998 0.263672C51.2142 0.326433 52.0308 0.540088 52.6211 0.71582C53.2113 0.891562 54.1656 1.26797 54.7559 1.55664C55.346 1.84529 56.1368 2.28506 56.5137 2.53613C56.8904 2.78716 57.5939 3.32685 58.0586 3.72852C58.5233 4.13019 59.2268 4.82058 59.6035 5.27246C59.9802 5.72423 60.495 6.40171 60.7588 6.77832C61.0099 7.15485 61.3991 7.85812 61.6377 8.34766C61.8763 8.82464 62.2029 9.5781 62.3662 10.0049C62.5295 10.4443 62.781 11.3733 62.9316 12.0762C63.1074 12.9422 63.1953 13.871 63.1953 14.875C63.1953 15.7034 63.1328 16.8335 63.0449 17.3857C62.9695 17.9381 62.731 18.9294 62.5176 19.582C62.3041 20.2348 61.8763 21.2767 61.5498 21.9043C61.2358 22.5194 60.7082 23.3978 60.3691 23.8496C60.0426 24.3015 59.3904 25.0553 58.9258 25.5322C58.4611 26.0092 57.6565 26.7115 57.1416 27.1006C56.6268 27.4896 55.6856 28.0672 55.0703 28.3936C54.4424 28.7074 53.4872 29.1094 52.9346 29.2852C52.3819 29.4609 51.4151 29.6996 50.7998 29.8125C49.9082 29.9882 49.2547 30.0131 47.7227 29.9629C46.3542 29.9127 45.4752 29.8249 44.7344 29.6367C44.1692 29.4861 43.214 29.1721 42.5986 28.9336C41.9958 28.6825 41.1041 28.2554 40.627 27.9668C40.1372 27.6781 39.4965 27.2513 39.1826 27.0254C38.8685 26.7867 38.228 26.2221 37.751 25.7578C37.2738 25.2934 36.5709 24.4902 36.1816 23.9756C35.7923 23.4609 35.24 22.5816 34.9512 22.0293C34.6623 21.477 34.285 20.6234 34.0967 20.1465C33.9209 19.6568 33.6576 18.7029 33.5195 18.0127C33.3312 17.1091 33.2559 16.2808 33.2559 15.0635C33.2559 13.8459 33.3312 13.017 33.5195 12.1133C33.6577 11.4231 33.9209 10.4819 34.0967 10.0049C34.2725 9.54056 34.5863 8.81241 34.7998 8.37305C35.0133 7.9463 35.4913 7.14312 35.8555 6.59082C36.2197 6.03852 36.9352 5.15918 37.4375 4.64453C37.9523 4.11741 38.7057 3.4398 39.1201 3.12598C39.5345 2.8122 40.2631 2.32289 40.7529 2.03418C41.2302 1.75803 42.0593 1.35597 42.5742 1.14258C43.0892 0.941746 43.9432 0.652699 44.458 0.514648C44.9729 0.376593 45.8518 0.201426 46.4043 0.138672C46.9568 0.0759143 47.9991 0.0385268 48.7275 0.0761719ZM189.624 0.125977C189.682 0.160438 193.614 6.88817 206.93 29.9375L198.251 29.9756C193.479 29.9881 185.692 29.9877 172.317 29.9375L180.933 15.0254C185.667 6.82874 189.574 0.125977 189.624 0.125977ZM15.8242 1.26855C23.5599 1.256 25.0418 1.28117 25.6572 1.44434C26.0591 1.54475 26.6749 1.78325 27.0391 1.95898C27.4033 2.1474 28.0437 2.63683 28.458 3.06348C28.9351 3.54036 29.3747 4.13 29.6133 4.64453C29.8267 5.08372 30.0652 5.84931 30.1406 6.33887C30.216 6.81585 30.2669 7.94599 30.2041 10.4814L19.0264 10.5195C11.5561 10.5446 7.70067 10.5068 7.38477 10.4189C7.12119 10.3437 6.76968 10.1177 6.59375 9.91699C6.38025 9.6534 6.2793 9.38955 6.2793 9.03809C6.2793 8.76194 6.3673 8.36002 6.46777 8.15918C6.58085 7.94583 6.83233 7.69511 7.0332 7.59473C7.36012 7.43164 8.7703 7.4061 27.0645 7.39355L26.9756 6.8418C26.9254 6.52799 26.8007 6.11309 26.7002 5.9248C26.6123 5.73652 26.3728 5.42346 26.1719 5.22266C25.971 5.02188 25.6451 4.77025 25.4316 4.65723C25.1051 4.46894 24.1376 4.44405 16.1377 4.41895C7.49906 4.3813 7.19615 4.39347 6.40527 4.63184C5.96572 4.78246 5.32457 5.08391 4.99805 5.33496C4.67153 5.57347 4.23217 6.01309 4.03125 6.30176C3.83036 6.60297 3.56715 7.09247 3.4541 7.40625C3.32855 7.74507 3.25282 8.34738 3.24023 8.91211C3.24023 9.55212 3.32817 10.0671 3.50391 10.5439C3.64201 10.9455 4.01855 11.5231 4.37012 11.9248C4.74686 12.339 5.28736 12.7657 6.46777 13.3682L23.9238 13.4941L24.9043 13.833C25.4443 14.0213 26.2352 14.3977 26.6621 14.6738C27.0891 14.9374 27.7551 15.4901 28.1318 15.9043C28.5211 16.306 29.036 17.0339 29.2871 17.5107C29.5383 17.9877 29.8518 18.7283 29.9648 19.1426C30.103 19.607 30.1914 20.3351 30.1914 21.0254C30.1914 21.6405 30.1278 22.4566 30.0273 22.8457C29.9394 23.2223 29.6514 23.9879 29.3877 24.54C29.124 25.1049 28.6209 25.8584 28.2441 26.2852C27.8674 26.6868 27.2652 27.2267 26.876 27.4902C26.4992 27.7413 25.8203 28.092 25.3682 28.2803C24.9287 28.4559 24.1884 28.6571 23.7363 28.7324C23.2214 28.8203 19.755 28.8711 14.3174 28.8711C8.96738 28.8711 5.46299 28.8204 5.02344 28.7451C4.64666 28.6698 3.91807 28.4065 3.39062 28.168C2.76274 27.8667 2.21827 27.477 1.75781 27C1.33097 26.5733 0.904558 25.9708 0.666016 25.4814C0.452518 25.0296 0.225606 24.364 0.137695 24C0.0623886 23.6354 3.03561e-07 22.4928 0 19.582H11.4658C22.6927 19.582 22.9321 19.582 23.334 19.833C23.56 19.9711 23.7988 20.2097 23.8867 20.3604C23.962 20.5235 24.0243 20.837 24.0244 21.0879C24.0244 21.3264 23.9372 21.7037 23.8242 21.9297C23.7111 22.1556 23.4468 22.4193 23.2334 22.5322C22.9188 22.6953 21.507 22.7197 3.13965 22.7197L3.21484 23.0586C3.2525 23.2468 3.3654 23.636 3.46582 23.9121C3.55369 24.1881 3.84281 24.615 4.10645 24.8535C4.37007 25.1045 4.80963 25.3809 5.08594 25.4814C5.51293 25.6321 7.07052 25.6699 14.4424 25.6699C22.5025 25.6699 23.3587 25.645 23.9238 25.4443C24.2755 25.3314 24.8289 25.0423 25.168 24.8164C25.507 24.5904 25.9713 24.1508 26.1973 23.8496C26.4233 23.5358 26.7122 23.021 26.8252 22.7197C26.9507 22.3683 27.0392 21.7662 27.0518 21.1514C27.0518 20.2727 27.0136 20.0461 26.6494 19.293C26.4359 18.8286 26.0093 18.2133 25.708 17.9121C25.4192 17.6234 24.8908 17.247 24.5518 17.0713C23.9368 16.7703 23.8479 16.7579 19.8428 16.6826C17.6073 16.6324 13.7011 16.582 11.1768 16.582C7.52256 16.5695 6.44263 16.5315 5.83984 16.3809C5.42544 16.2679 4.67198 15.9795 4.14453 15.7285C3.47894 15.4022 2.95115 15.0006 2.32324 14.373C1.65763 13.7203 1.29362 13.2176 0.904297 12.4268C0.615487 11.8368 0.288927 10.9583 0.188477 10.4814C0.0880195 9.99192 0.0126953 9.32633 0.0126953 9C0.000228282 8.6735 0.0882117 7.97114 0.201172 7.43164C0.3142 6.90444 0.590487 6.06292 0.829102 5.58594C1.05514 5.09653 1.48172 4.419 1.77051 4.08008C2.05936 3.72861 2.61263 3.18895 3.00195 2.8877C3.3913 2.5739 4.08198 2.1471 4.52148 1.94629C4.9736 1.74547 5.65162 1.50694 6.02832 1.43164C6.54345 1.31868 9.19362 1.26855 15.8242 1.26855ZM77.9014 1.25586C87.9609 1.25586 89.7321 1.28116 90.4229 1.44434C90.875 1.55737 91.6659 1.84571 92.1807 2.09668C92.8588 2.43556 93.3991 2.82439 94.0771 3.51465C94.7134 4.14217 95.182 4.74927 95.4834 5.33496C95.722 5.81188 96.0235 6.55254 96.124 6.9668C96.237 7.39348 96.3252 8.23436 96.3252 8.91211C96.3252 9.58993 96.2371 10.4316 96.124 10.8584C96.0235 11.2726 95.7348 11.975 95.5088 12.4268C95.2702 12.866 94.8682 13.4938 94.6045 13.8076C94.3408 14.134 93.8507 14.6242 93.499 14.9004C93.1599 15.189 92.5324 15.5904 92.1182 15.8037C91.7039 16.0045 91.0258 16.2678 90.6113 16.3809C89.9457 16.5566 88.6643 16.5819 69.3242 16.5693V25.7324H72.3379V19.582H84.0801L87.6094 25.6699L91.0508 25.7324L87.5342 19.6445L89.3301 19.6074C90.686 19.5823 91.1383 19.607 91.2139 19.7324C91.2767 19.8203 92.4574 21.8416 93.8389 24.2266C95.2328 26.5988 96.388 28.6201 96.4131 28.708C96.4479 28.8332 95.321 28.8711 85.7754 28.8711L82.2842 22.7832L75.4775 22.7197L75.415 28.8076L66.1846 28.8711V13.4316L89.8574 13.3682L90.5859 13.0176C90.9878 12.8293 91.5658 12.4145 91.8672 12.1133C92.1811 11.7994 92.5949 11.2219 92.7832 10.8203C93.0469 10.268 93.1352 9.86627 93.1729 9.10059C93.198 8.30997 93.1599 7.94594 92.959 7.40625C92.8208 7.01723 92.5201 6.49003 92.3066 6.21387C92.0932 5.93779 91.6785 5.52383 91.3896 5.29785C91.1008 5.07192 90.498 4.78261 90.0459 4.64453C89.2547 4.39349 88.9281 4.381 69.3242 4.39355V7.40625H79.1826C88.3504 7.40625 89.079 7.41928 89.4307 7.62012C89.6314 7.74569 89.8821 8.02134 89.9951 8.24707C90.0955 8.47277 90.1707 8.77383 90.1709 8.91211C90.1709 9.05014 90.0835 9.36423 89.958 9.61523C89.8324 9.86628 89.5938 10.1556 89.418 10.2686C89.1416 10.4568 88.0595 10.4812 66.1846 10.5439V1.25586H77.9014ZM111.145 22.7197H108.005V4.39355H104.99V25.7324H111.145V28.8711H101.851V1.25586H111.145V22.7197ZM130.736 8.97559C133.122 13.2181 135.107 16.6826 135.132 16.6826C135.179 16.6665 137.169 13.2026 143.872 1.31836L153.693 1.25586L153.719 28.8711H144.425L144.362 18.7783L138.66 28.8076L131.552 28.8584L122.698 13.3057L122.711 10.3809C122.711 8.05944 122.748 7.50709 122.861 7.66992C122.949 7.77034 125.361 11.8871 133.437 25.7197H136.827L147.502 7.39355L147.564 25.7324H150.579V4.39355H145.681L140.381 13.5693C135.672 21.702 135.056 22.7073 134.918 22.5068C134.818 22.3813 132.444 18.2512 124.52 4.38086L119.685 4.39355V25.7324H122.698V22.8711C122.698 21.0767 122.749 20.0593 122.824 20.1465C122.887 20.2092 123.59 21.402 125.851 25.293L125.775 28.8076L116.545 28.8711V1.25586H126.403L130.736 8.97559ZM163.903 19.6074C164.808 19.6325 165.096 19.708 165.787 20.0469C166.227 20.2603 166.829 20.687 167.118 20.9883C167.407 21.2769 167.796 21.8287 167.997 22.2178C168.324 22.8328 168.35 23.0218 168.35 24.1641C168.35 25.2432 168.311 25.507 168.035 26.1094C167.847 26.4859 167.445 27.0633 167.118 27.3896C166.792 27.716 166.264 28.1298 165.938 28.293C165.611 28.4561 164.996 28.6571 164.582 28.7324C164.067 28.8203 163.602 28.833 163.074 28.7451C162.66 28.6698 162.019 28.4568 161.655 28.2686C161.266 28.0803 160.701 27.6283 160.35 27.2393C159.998 26.8376 159.621 26.2601 159.482 25.8584C159.307 25.394 159.219 24.8541 159.219 24.2266C159.219 23.5865 159.307 23.0591 159.482 22.5947C159.621 22.2056 159.922 21.6657 160.148 21.377C160.387 21.0883 160.763 20.6989 161.002 20.498C161.241 20.3098 161.756 20.0216 162.133 19.8584C162.71 19.6199 163.024 19.5823 163.903 19.6074ZM189.712 3.30176C189.599 3.17624 187.815 6.17622 182.265 15.791L174.968 28.4316C197.544 28.4818 204.127 28.4693 204.154 28.4316C204.179 28.394 200.977 22.7578 197.033 15.9043C193.081 9.07023 189.794 3.38836 189.712 3.30176ZM48.6025 3.18848C47.3341 3.15082 46.7933 3.18895 45.8389 3.40234C45.1858 3.54045 44.2437 3.81678 43.7666 4.01758C43.2769 4.21843 42.5491 4.59474 42.1348 4.8457C41.7204 5.09673 41.0167 5.58604 40.5771 5.9375C40.1376 6.30151 39.422 7.04243 38.9824 7.59473C38.5303 8.14701 37.9522 9.02539 37.6885 9.54004C37.4247 10.0547 37.0861 10.846 36.9229 11.2979C36.7722 11.7498 36.5583 12.7286 36.4453 13.4941C36.2821 14.649 36.2825 15.1013 36.3955 16.1934C36.4835 16.959 36.6969 18.0129 36.9229 18.7031C37.1363 19.3558 37.5125 20.26 37.7637 20.7119C38.0022 21.1637 38.4543 21.8411 38.7432 22.2178C39.032 22.5943 39.6356 23.247 40.0752 23.6738C40.5147 24.1006 41.3054 24.7158 41.8203 25.0547C42.3351 25.4061 43.214 25.8578 43.7666 26.0713C44.3192 26.2847 45.2238 26.5483 45.7764 26.6738C46.3792 26.7994 47.3465 26.8877 48.2256 26.8877C49.0919 26.8877 50.071 26.7993 50.6738 26.6738C51.2263 26.5609 52.1558 26.2725 52.7461 26.0215C53.3362 25.783 54.2657 25.281 54.8184 24.917C55.3709 24.553 56.2005 23.8627 56.6777 23.3857C57.1424 22.9213 57.7075 22.2806 57.9336 21.9668C58.1471 21.6404 58.536 21.0003 58.7871 20.5234C59.0508 20.0339 59.3896 19.1929 59.5654 18.6406C59.7413 18.0883 59.9549 17.0464 60.0303 16.3184C60.1433 15.3267 60.1434 14.7114 60.043 13.8076C59.9676 13.1549 59.7418 12.0755 59.5283 11.4229C59.3274 10.7701 58.8999 9.77884 58.5859 9.22656C58.2595 8.67437 57.7573 7.90887 57.4434 7.53223C57.142 7.15569 56.4511 6.46526 55.9111 5.98828C55.2581 5.41088 54.5044 4.92049 53.5625 4.45605C52.7965 4.06704 51.7293 3.64104 51.1768 3.50293C50.5238 3.33977 49.6196 3.22615 48.6025 3.18848ZM189.687 7.40625C189.765 7.41122 192.238 11.6393 195.188 16.8203C198.151 21.9918 200.562 26.2602 200.562 26.2979C200.545 26.323 195.597 26.3604 178.585 26.3604L184.072 16.8828C187.086 11.6611 189.624 7.40625 189.687 7.40625ZM163.803 22.7197C163.614 22.7198 163.325 22.7958 163.149 22.8711C162.986 22.9591 162.748 23.1721 162.622 23.3477C162.509 23.5107 162.397 23.774 162.384 23.9121C162.371 24.0502 162.371 24.3146 162.371 24.5029C162.384 24.7037 162.547 25.0044 162.735 25.2051C162.924 25.3934 163.25 25.5824 163.451 25.6201C163.665 25.6703 164.004 25.6575 164.205 25.5947C164.419 25.5319 164.719 25.3557 164.87 25.2051C165.058 25.0168 165.184 24.703 165.222 24.3516C165.272 23.9124 165.234 23.6868 165.033 23.373C164.895 23.1472 164.632 22.9085 164.456 22.8457C164.293 22.7704 163.991 22.7197 163.803 22.7197ZM189.661 10.5195C189.611 10.4693 187.727 13.6325 185.467 17.5488C183.206 21.4651 181.36 24.7037 181.36 24.7539C181.384 24.804 185.092 24.8535 189.636 24.8535C194.19 24.8535 197.931 24.8415 197.938 24.8164C197.938 24.8039 196.092 21.5903 193.844 17.6992C191.597 13.7975 189.713 10.5731 189.661 10.5195ZM48.7275 6.10059C49.2549 6.13823 50.0083 6.25116 50.4229 6.35156C50.8372 6.45197 51.5784 6.72818 52.0557 6.9541C52.5454 7.19259 53.3114 7.67002 53.751 8.02148C54.2031 8.3855 54.8186 8.96313 55.1074 9.32715C55.4088 9.67863 55.8108 10.256 56.0117 10.6074C56.2126 10.9463 56.5265 11.6487 56.7148 12.1758C56.966 12.8913 57.067 13.4444 57.1172 14.5615C57.1674 15.6783 57.1299 16.2182 56.9541 17.0088C56.8285 17.5736 56.4886 18.5024 56.1621 19.1426C55.7101 20.0462 55.3839 20.4857 54.5176 21.3516C53.6259 22.2428 53.2363 22.5193 52.2441 23.0088C51.566 23.3477 50.6494 23.6868 50.1094 23.7998C49.4563 23.9379 48.7654 23.9752 47.8486 23.9375C46.8943 23.8998 46.2537 23.7873 45.5254 23.5488C44.9728 23.3731 44.1564 23.0089 43.7168 22.7578C43.2773 22.4942 42.5736 21.9674 42.1592 21.5908C41.7573 21.2017 41.23 20.6362 41.0039 20.335C40.7778 20.0211 40.4135 19.3933 40.1875 18.9541C39.9615 18.5022 39.6724 17.7118 39.5469 17.1973C39.3962 16.5948 39.3086 15.8165 39.3086 15.0635C39.3086 14.2685 39.3964 13.5357 39.5723 12.8662C39.7104 12.314 40.0618 11.4106 40.3506 10.8584C40.7273 10.1178 41.1551 9.56521 41.9463 8.77441C42.5993 8.10921 43.3403 7.51929 43.8301 7.24316C44.2822 6.99213 45.0234 6.67795 45.4629 6.52734C45.915 6.37676 46.6179 6.20157 47.0322 6.15137C47.4466 6.08861 48.2126 6.07549 48.7275 6.10059ZM189.687 14.6865C189.751 14.689 190.819 16.4858 194.283 22.6572L189.674 22.6826C187.147 22.6951 185.056 22.695 185.027 22.6826C185.002 22.6701 186.02 20.8626 187.275 18.666C188.544 16.4819 189.624 14.6865 189.687 14.6865ZM189.674 17.8242C189.598 17.8242 189.109 18.5651 188.581 19.4814L187.64 21.1514C189.146 21.2016 190.038 21.201 190.604 21.1885L191.62 21.1514C190.214 18.5656 189.749 17.8242 189.674 17.8242ZM48.1621 9.17578C47.823 9.17585 47.2577 9.25187 46.9062 9.32715C46.5671 9.4151 45.9396 9.65281 45.5254 9.85352C45.111 10.0543 44.4578 10.5317 44.0811 10.9082C43.6667 11.3223 43.2269 11.9373 42.9883 12.4268C42.7622 12.8912 42.5362 13.6323 42.4482 14.1846C42.3352 14.9126 42.3479 15.3271 42.4609 16.0049C42.5489 16.4819 42.8004 17.2474 43.0264 17.6992C43.2775 18.1887 43.7295 18.791 44.1689 19.2178C44.6336 19.6696 45.2364 20.0841 45.7764 20.3477C46.5424 20.6991 46.8313 20.7623 47.9111 20.8125C48.9534 20.8627 49.3053 20.8245 49.9834 20.5986C50.4355 20.4606 51.0638 20.1715 51.3652 19.9707C51.6792 19.7823 52.2068 19.3307 52.5332 18.9668C52.8597 18.6153 53.2991 17.9754 53.5 17.5361C53.7009 17.1094 53.9266 16.3687 54.002 15.9043C54.0899 15.327 54.0898 14.7998 54.002 14.21C53.9266 13.733 53.676 12.954 53.4248 12.4268C53.1234 11.7993 52.7588 11.2726 52.3193 10.8584C51.9677 10.5069 51.3899 10.0799 51.0508 9.8916C50.7116 9.70334 50.0585 9.46451 49.6064 9.35156C49.1669 9.25118 48.5136 9.16323 48.1621 9.17578ZM213.096 0C213.714 0.161556 214.045 0.379444 214.475 0.850586C214.624 1.00934 214.625 1.01031 214.777 1.17188C214.987 1.51255 214.987 1.51383 215 1.88672C214.823 2.37435 214.534 2.66656 214.16 3.00977C214.095 3.07243 214.028 3.13563 213.961 3.2002C213.8 3.35354 213.638 3.50533 213.475 3.65625C212.856 3.49468 212.525 3.2769 212.096 2.80566C211.996 2.69977 211.895 2.59347 211.792 2.48438C211.583 2.14388 211.583 2.14286 211.587 1.75391C211.718 1.36099 211.843 1.179 212.143 0.898438C212.22 0.82342 212.299 0.748189 212.379 0.670898C212.592 0.5048 212.592 0.503906 212.844 0.503906L213.096 0Z" fill="white"></path>
            </svg>